<mxfile host="app.diagrams.net" modified="2020-11-19T08:41:59.586Z" agent="5.0 (X11; Linux x86_64) AppleWebKit/537.36 (KHTML, like Gecko) Chrome/85.0.4183.121 Safari/537.36" etag="85i2h60-kqsY8m77qS64" version="13.10.0" type="github">
  <diagram id="htsnJRiTy0PdUouxYch2" name="Page-1">
    <mxGraphModel dx="920" dy="876" grid="1" gridSize="10" guides="1" tooltips="1" connect="1" arrows="1" fold="1" page="1" pageScale="1" pageWidth="850" pageHeight="1100" math="0" shadow="0">
      <root>
        <mxCell id="0" />
        <mxCell id="1" parent="0" />
        <mxCell id="hs60Bh9PJOF-6od84D4g-1" value="Admin" style="shape=umlActor;verticalLabelPosition=bottom;verticalAlign=top;html=1;outlineConnect=0;" parent="1" vertex="1">
          <mxGeometry x="540" y="560" width="30" height="60" as="geometry" />
        </mxCell>
        <mxCell id="hs60Bh9PJOF-6od84D4g-13" value="Đăng xuất" style="ellipse;whiteSpace=wrap;html=1;" parent="1" vertex="1">
          <mxGeometry x="750" y="650" width="120" height="40" as="geometry" />
        </mxCell>
        <mxCell id="hs60Bh9PJOF-6od84D4g-14" value="" style="endArrow=open;endFill=1;endSize=12;html=1;entryX=0;entryY=0.5;entryDx=0;entryDy=0;" parent="1" target="hs60Bh9PJOF-6od84D4g-13" edge="1">
          <mxGeometry width="160" relative="1" as="geometry">
            <mxPoint x="590" y="630" as="sourcePoint" />
            <mxPoint x="452.42640687119297" y="697.3223304703365" as="targetPoint" />
          </mxGeometry>
        </mxCell>
        <mxCell id="hs60Bh9PJOF-6od84D4g-16" value="Xem trang tin tức" style="ellipse;whiteSpace=wrap;html=1;" parent="1" vertex="1">
          <mxGeometry x="720" y="510" width="120" height="40" as="geometry" />
        </mxCell>
        <mxCell id="hs60Bh9PJOF-6od84D4g-17" value="Xem trang thông tin liên hệ nhà phân phối" style="ellipse;whiteSpace=wrap;html=1;" parent="1" vertex="1">
          <mxGeometry x="680" y="440" width="140" height="56" as="geometry" />
        </mxCell>
        <mxCell id="hs60Bh9PJOF-6od84D4g-22" value="Xem thông tin khác" style="ellipse;whiteSpace=wrap;html=1;" parent="1" vertex="1">
          <mxGeometry x="730" y="576" width="120" height="40" as="geometry" />
        </mxCell>
        <mxCell id="hs60Bh9PJOF-6od84D4g-23" value="Xem trang giới thiệu công ty" style="ellipse;whiteSpace=wrap;html=1;" parent="1" vertex="1">
          <mxGeometry x="650" y="380" width="120" height="50" as="geometry" />
        </mxCell>
        <mxCell id="hs60Bh9PJOF-6od84D4g-28" value="" style="endArrow=open;endFill=1;endSize=12;html=1;entryX=0;entryY=0.5;entryDx=0;entryDy=0;" parent="1" target="hs60Bh9PJOF-6od84D4g-17" edge="1">
          <mxGeometry width="160" relative="1" as="geometry">
            <mxPoint x="570" y="560" as="sourcePoint" />
            <mxPoint x="442.42640687119297" y="727.3223304703363" as="targetPoint" />
          </mxGeometry>
        </mxCell>
        <mxCell id="hs60Bh9PJOF-6od84D4g-29" value="" style="endArrow=open;endFill=1;endSize=12;html=1;entryX=0;entryY=0.5;entryDx=0;entryDy=0;" parent="1" target="hs60Bh9PJOF-6od84D4g-16" edge="1">
          <mxGeometry width="160" relative="1" as="geometry">
            <mxPoint x="580" y="570" as="sourcePoint" />
            <mxPoint x="720" y="461" as="targetPoint" />
          </mxGeometry>
        </mxCell>
        <mxCell id="hs60Bh9PJOF-6od84D4g-30" value="" style="endArrow=open;endFill=1;endSize=12;html=1;entryX=0;entryY=0.35;entryDx=0;entryDy=0;entryPerimeter=0;" parent="1" target="hs60Bh9PJOF-6od84D4g-22" edge="1">
          <mxGeometry width="160" relative="1" as="geometry">
            <mxPoint x="580" y="600" as="sourcePoint" />
            <mxPoint x="720" y="541" as="targetPoint" />
          </mxGeometry>
        </mxCell>
        <mxCell id="hs60Bh9PJOF-6od84D4g-31" value="" style="endArrow=open;endFill=1;endSize=12;html=1;entryX=0.074;entryY=0.88;entryDx=0;entryDy=0;entryPerimeter=0;" parent="1" target="hs60Bh9PJOF-6od84D4g-23" edge="1">
          <mxGeometry width="160" relative="1" as="geometry">
            <mxPoint x="560" y="550" as="sourcePoint" />
            <mxPoint x="720" y="461" as="targetPoint" />
          </mxGeometry>
        </mxCell>
        <mxCell id="hs60Bh9PJOF-6od84D4g-37" value="&amp;lt;&amp;lt;extend&amp;gt;&amp;gt;" style="endArrow=open;endSize=12;dashed=1;html=1;exitX=0.083;exitY=0.838;exitDx=0;exitDy=0;exitPerimeter=0;" parent="1" source="hs60Bh9PJOF-6od84D4g-38" target="hs60Bh9PJOF-6od84D4g-16" edge="1">
          <mxGeometry width="160" relative="1" as="geometry">
            <mxPoint x="920" y="450" as="sourcePoint" />
            <mxPoint x="1038.96" y="495" as="targetPoint" />
          </mxGeometry>
        </mxCell>
        <mxCell id="hs60Bh9PJOF-6od84D4g-38" value="Sửa trang tin tức" style="ellipse;whiteSpace=wrap;html=1;" parent="1" vertex="1">
          <mxGeometry x="900" y="470" width="120" height="40" as="geometry" />
        </mxCell>
        <mxCell id="hs60Bh9PJOF-6od84D4g-39" value="Xem chi tiết sản phẩm" style="ellipse;whiteSpace=wrap;html=1;" parent="1" vertex="1">
          <mxGeometry x="880" y="310" width="120" height="40" as="geometry" />
        </mxCell>
        <mxCell id="hs60Bh9PJOF-6od84D4g-40" value="Xem trang sản phẩm" style="ellipse;whiteSpace=wrap;html=1;" parent="1" vertex="1">
          <mxGeometry x="730" y="270" width="120" height="40" as="geometry" />
        </mxCell>
        <mxCell id="hs60Bh9PJOF-6od84D4g-41" value="&amp;lt;&amp;lt;extend&amp;gt;&amp;gt;" style="endArrow=open;endSize=12;dashed=1;html=1;exitX=0.058;exitY=0.3;exitDx=0;exitDy=0;exitPerimeter=0;entryX=1;entryY=0.5;entryDx=0;entryDy=0;" parent="1" source="hs60Bh9PJOF-6od84D4g-39" target="hs60Bh9PJOF-6od84D4g-40" edge="1">
          <mxGeometry width="160" relative="1" as="geometry">
            <mxPoint x="900" y="302.5" as="sourcePoint" />
            <mxPoint x="870" y="395" as="targetPoint" />
          </mxGeometry>
        </mxCell>
        <mxCell id="hs60Bh9PJOF-6od84D4g-42" value="" style="endArrow=open;endFill=1;endSize=12;html=1;entryX=0;entryY=0.5;entryDx=0;entryDy=0;exitX=0.946;exitY=0.729;exitDx=0;exitDy=0;exitPerimeter=0;" parent="1" source="hs60Bh9PJOF-6od84D4g-48" target="hs60Bh9PJOF-6od84D4g-39" edge="1">
          <mxGeometry width="160" relative="1" as="geometry">
            <mxPoint x="600" y="330" as="sourcePoint" />
            <mxPoint x="560" y="210" as="targetPoint" />
          </mxGeometry>
        </mxCell>
        <mxCell id="hs60Bh9PJOF-6od84D4g-43" value="" style="endArrow=open;endFill=1;endSize=12;html=1;entryX=0;entryY=0.5;entryDx=0;entryDy=0;exitX=0.962;exitY=0.314;exitDx=0;exitDy=0;exitPerimeter=0;" parent="1" source="hs60Bh9PJOF-6od84D4g-48" target="hs60Bh9PJOF-6od84D4g-40" edge="1">
          <mxGeometry width="160" relative="1" as="geometry">
            <mxPoint x="600" y="300" as="sourcePoint" />
            <mxPoint x="545" y="150" as="targetPoint" />
          </mxGeometry>
        </mxCell>
        <mxCell id="hs60Bh9PJOF-6od84D4g-44" value="Tìm kiếm sản phẩm" style="ellipse;whiteSpace=wrap;html=1;" parent="1" vertex="1">
          <mxGeometry x="840" y="180" width="120" height="40" as="geometry" />
        </mxCell>
        <mxCell id="hs60Bh9PJOF-6od84D4g-45" value="" style="endArrow=open;endFill=1;endSize=12;html=1;entryX=0;entryY=0.5;entryDx=0;entryDy=0;exitX=1;exitY=0;exitDx=0;exitDy=0;" parent="1" source="hs60Bh9PJOF-6od84D4g-48" target="hs60Bh9PJOF-6od84D4g-44" edge="1">
          <mxGeometry width="160" relative="1" as="geometry">
            <mxPoint x="580" y="290" as="sourcePoint" />
            <mxPoint x="580" y="320" as="targetPoint" />
          </mxGeometry>
        </mxCell>
        <mxCell id="hs60Bh9PJOF-6od84D4g-46" value="&amp;lt;&amp;lt;extend&amp;gt;&amp;gt;" style="endArrow=open;endSize=12;dashed=1;html=1;exitX=0;exitY=1;exitDx=0;exitDy=0;entryX=1;entryY=0;entryDx=0;entryDy=0;" parent="1" source="hs60Bh9PJOF-6od84D4g-44" target="hs60Bh9PJOF-6od84D4g-40" edge="1">
          <mxGeometry width="160" relative="1" as="geometry">
            <mxPoint x="766.96" y="332" as="sourcePoint" />
            <mxPoint x="700" y="320" as="targetPoint" />
          </mxGeometry>
        </mxCell>
        <mxCell id="hs60Bh9PJOF-6od84D4g-47" value="&amp;lt;&amp;lt;extend&amp;gt;&amp;gt;" style="endArrow=open;endSize=12;dashed=1;html=1;entryX=0.5;entryY=1;entryDx=0;entryDy=0;" parent="1" source="hs60Bh9PJOF-6od84D4g-39" target="hs60Bh9PJOF-6od84D4g-44" edge="1">
          <mxGeometry width="160" relative="1" as="geometry">
            <mxPoint x="766.96" y="332" as="sourcePoint" />
            <mxPoint x="700" y="320" as="targetPoint" />
          </mxGeometry>
        </mxCell>
        <mxCell id="hs60Bh9PJOF-6od84D4g-48" value="Xem sản phẩm" style="ellipse;whiteSpace=wrap;html=1;" parent="1" vertex="1">
          <mxGeometry x="560" y="280" width="130" height="50" as="geometry" />
        </mxCell>
        <mxCell id="hs60Bh9PJOF-6od84D4g-50" value="" style="endArrow=open;endFill=1;endSize=12;html=1;entryX=0.231;entryY=0.96;entryDx=0;entryDy=0;entryPerimeter=0;" parent="1" target="hs60Bh9PJOF-6od84D4g-48" edge="1">
          <mxGeometry width="160" relative="1" as="geometry">
            <mxPoint x="550" y="530" as="sourcePoint" />
            <mxPoint x="673.5167323261574" y="409.0380986910209" as="targetPoint" />
          </mxGeometry>
        </mxCell>
        <mxCell id="vCadQJUx2Q9RowKkNnl8-1" value="&amp;lt;&amp;lt;extend&amp;gt;&amp;gt;" style="endArrow=open;endSize=12;dashed=1;html=1;exitX=0.008;exitY=0.588;exitDx=0;exitDy=0;exitPerimeter=0;entryX=1;entryY=0.35;entryDx=0;entryDy=0;entryPerimeter=0;" parent="1" source="vCadQJUx2Q9RowKkNnl8-2" target="hs60Bh9PJOF-6od84D4g-22" edge="1">
          <mxGeometry width="160" relative="1" as="geometry">
            <mxPoint x="953.89" y="540" as="sourcePoint" />
            <mxPoint x="849.9963899600749" y="597.9807767847067" as="targetPoint" />
          </mxGeometry>
        </mxCell>
        <mxCell id="vCadQJUx2Q9RowKkNnl8-2" value="Sửa thông tin khác" style="ellipse;whiteSpace=wrap;html=1;" parent="1" vertex="1">
          <mxGeometry x="970" y="540" width="120" height="50" as="geometry" />
        </mxCell>
        <mxCell id="RFYTupEPOqXVh9oHEL6r-2" value="Sửa trang liên hệ" style="ellipse;whiteSpace=wrap;html=1;" vertex="1" parent="1">
          <mxGeometry x="890" y="420" width="120" height="40" as="geometry" />
        </mxCell>
        <mxCell id="RFYTupEPOqXVh9oHEL6r-3" value="&amp;lt;&amp;lt;extend&amp;gt;&amp;gt;" style="endArrow=open;endSize=12;dashed=1;html=1;exitX=0.034;exitY=0.718;exitDx=0;exitDy=0;exitPerimeter=0;entryX=1;entryY=0.5;entryDx=0;entryDy=0;" edge="1" parent="1" source="RFYTupEPOqXVh9oHEL6r-2" target="hs60Bh9PJOF-6od84D4g-17">
          <mxGeometry width="160" relative="1" as="geometry">
            <mxPoint x="919.96" y="513.52" as="sourcePoint" />
            <mxPoint x="841.4495755427524" y="529.7100848914495" as="targetPoint" />
          </mxGeometry>
        </mxCell>
        <mxCell id="RFYTupEPOqXVh9oHEL6r-4" value="Sửa trang giới thiệu" style="ellipse;whiteSpace=wrap;html=1;" vertex="1" parent="1">
          <mxGeometry x="860" y="370" width="120" height="40" as="geometry" />
        </mxCell>
        <mxCell id="RFYTupEPOqXVh9oHEL6r-5" value="&amp;lt;&amp;lt;extend&amp;gt;&amp;gt;" style="endArrow=open;endSize=12;dashed=1;html=1;exitX=0;exitY=0.5;exitDx=0;exitDy=0;entryX=1;entryY=0.5;entryDx=0;entryDy=0;" edge="1" parent="1" source="RFYTupEPOqXVh9oHEL6r-4" target="hs60Bh9PJOF-6od84D4g-23">
          <mxGeometry width="160" relative="1" as="geometry">
            <mxPoint x="904.0800000000002" y="458.72" as="sourcePoint" />
            <mxPoint x="830.0000000000009" y="477.9999999999998" as="targetPoint" />
          </mxGeometry>
        </mxCell>
      </root>
    </mxGraphModel>
  </diagram>
</mxfile>
